<svg xmlns="http://www.w3.org/2000/svg" id="prefix__Group_6667" width="30" height="30" data-name="Group 6667" viewBox="0 0 24 24">
    <path id="prefix__Rectangle_936" d="M0 0H24V24H0z" data-name="Rectangle 936" style="fill:none"/>
    <path id="prefix__Path_7483" d="M1394.535 2906.491l.044-.041 1.668-1.327a1.6 1.6 0 0 1 1.25-.414 1.837 1.837 0 0 1 1.124.516.954.954 0 0 1 .066.075l2.293 2.9a1.646 1.646 0 0 1-.041 2.281.84.84 0 0 1-.133.109l-1.709 1.1c.093.406.681 1.735 2.823 3.876s3.515 2.731 3.921 2.825l1.147-1.618a.871.871 0 0 1 .109-.134 1.646 1.646 0 0 1 2.281-.042l2.9 2.294a.8.8 0 0 1 .075.067 1.728 1.728 0 0 1 .1 2.374l-1.366 1.629c-.013.015-.027.03-.041.043a2.294 2.294 0 0 1-1.663.547 9.923 9.923 0 0 1-3.285-.754 21.062 21.062 0 0 1-11.352-11.354c-.446-1.115-1.338-3.825-.211-4.952z" data-name="Path 7483" transform="translate(-1390.988 -2901.702)" style="fill:#fff"/>
</svg>
